<svg width="16" height="16" viewBox="0 0 16 16" fill="none" xmlns="http://www.w3.org/2000/svg">
<g id="Iconly/Bulk/Location">
<g id="Location">
<path id="Path_34175" fill-rule="evenodd" clip-rule="evenodd" d="M5.68791 1.95752C7.14448 1.11119 8.93485 1.12598 10.3778 1.99627C11.8065 2.88428 12.6748 4.46913 12.6667 6.17397C12.6335 7.86763 11.7024 9.45967 10.5385 10.6904C9.86672 11.4039 9.11524 12.0349 8.29939 12.5704C8.21537 12.619 8.12333 12.6515 8.02782 12.6663C7.9359 12.6624 7.84637 12.6353 7.76733 12.5873C6.52178 11.7827 5.42905 10.7557 4.54172 9.55565C3.79922 8.55392 3.37739 7.34368 3.3335 6.08929C3.33253 4.38117 4.23134 2.80385 5.68791 1.95752ZM6.52981 6.7962C6.77483 7.40023 7.35316 7.79424 7.99477 7.79424C8.41511 7.79726 8.81916 7.62889 9.11691 7.32666C9.41466 7.02443 9.58136 6.61343 9.57987 6.18526C9.58211 5.5317 9.19734 4.94122 8.60521 4.68953C8.01308 4.43783 7.3304 4.57458 6.87592 5.03591C6.42143 5.49724 6.2848 6.19216 6.52981 6.7962Z" fill="#1A1C23"/>
<ellipse id="Ellipse_743" opacity="0.4" cx="8.00033" cy="13.9997" rx="3.33333" ry="0.666667" fill="#1A1C23"/>
</g>
</g>
</svg>
