<svg width="20" height="20" viewBox="0 0 20 20" fill="none" xmlns="http://www.w3.org/2000/svg">
<path fill-rule="evenodd" clip-rule="evenodd" d="M7.5 19C8.32843 19 9 18.3284 9 17.5C9 16.6716 8.32843 16 7.5 16C6.67157 16 6 16.6716 6 17.5C6 18.3284 6.67157 19 7.5 19Z" fill="#1A56FF"/>
<path fill-rule="evenodd" clip-rule="evenodd" d="M14.5 19C15.3284 19 16 18.3284 16 17.5C16 16.6716 15.3284 16 14.5 16C13.6716 16 13 16.6716 13 17.5C13 18.3284 13.6716 19 14.5 19Z" fill="#1A56FF"/>
<path d="M1 3.75H3.44198L5.85404 11.7902C6.203 12.9534 7.27364 13.75 8.48806 13.75H14.4914C15.7192 13.75 16.7983 12.9361 17.1356 11.7555L18.7211 6.20604C18.7858 5.97975 18.7405 5.73624 18.5988 5.54835C18.5775 5.52012 18.5378 5.48799 18.4857 5.45378C17.9968 5.13273 17.3626 5.48232 17.2024 6.04483L15.6933 11.3434C15.54 11.88 15.0495 12.25 14.4914 12.25H8.48806C7.93605 12.25 7.4494 11.8879 7.29078 11.3592L4.71837 2.78449C4.6232 2.46725 4.33121 2.25 4 2.25H1V3.75Z" fill="#1A56FF"/>
<path fill-rule="evenodd" clip-rule="evenodd" d="M12 4.5C12 4.22386 11.7761 4 11.5 4C11.2239 4 11 4.22386 11 4.5L11 6H9.5C9.22386 6 9 6.22386 9 6.5C9 6.77614 9.22386 7 9.5 7H11L11 8.5C11 8.77614 11.2239 9 11.5 9C11.7761 9 12 8.77614 12 8.5V7H13.5C13.7761 7 14 6.77614 14 6.5C14 6.22386 13.7761 6 13.5 6H12V4.5Z" fill="#1A56FF"/>
</svg>
