<svg width="17" height="18" viewBox="0 0 17 18" fill="none" xmlns="http://www.w3.org/2000/svg">
<path d="M14.1032 6.88965C14.1032 6.88965 13.6507 12.5021 13.3882 14.8663C13.2632 15.9955 12.5657 16.6571 11.4232 16.678C9.24901 16.7171 7.07234 16.7196 4.89901 16.6738C3.79984 16.6513 3.11401 15.9813 2.99151 14.8721C2.72734 12.4871 2.27734 6.88965 2.27734 6.88965" stroke="#130F26" stroke-width="1.5" stroke-linecap="round" stroke-linejoin="round"/>
<path d="M15.2567 4.19987H1.125" stroke="#130F26" stroke-width="1.5" stroke-linecap="round" stroke-linejoin="round"/>
<path d="M12.5335 4.19949C11.8793 4.19949 11.316 3.73699 11.1877 3.09616L10.9852 2.08283C10.8602 1.61533 10.4368 1.29199 9.95432 1.29199H6.42682C5.94432 1.29199 5.52099 1.61533 5.39599 2.08283L5.19349 3.09616C5.06516 3.73699 4.50182 4.19949 3.84766 4.19949" stroke="#130F26" stroke-width="1.5" stroke-linecap="round" stroke-linejoin="round"/>
</svg>
