<svg width="19" height="20" viewBox="0 0 19 20" fill="none" xmlns="http://www.w3.org/2000/svg">
<path d="M16.3238 7.46875C16.3238 7.46875 15.7808 14.2037 15.4658 17.0407C15.3158 18.3957 14.4788 19.1898 13.1078 19.2148C10.4988 19.2618 7.88681 19.2648 5.27881 19.2098C3.95981 19.1828 3.13681 18.3788 2.98981 17.0478C2.67281 14.1858 2.13281 7.46875 2.13281 7.46875" stroke="#1A1C23" stroke-width="1.5" stroke-linecap="round" stroke-linejoin="round"/>
<path d="M17.708 4.24023H0.75" stroke="#1A1C23" stroke-width="1.5" stroke-linecap="round" stroke-linejoin="round"/>
<path d="M14.4406 4.23998C13.6556 4.23998 12.9796 3.68498 12.8256 2.91598L12.5826 1.69998C12.4326 1.13898 11.9246 0.750977 11.3456 0.750977H7.11258C6.53358 0.750977 6.02558 1.13898 5.87558 1.69998L5.63258 2.91598C5.47858 3.68498 4.80258 4.23998 4.01758 4.23998" stroke="#1A1C23" stroke-width="1.5" stroke-linecap="round" stroke-linejoin="round"/>
</svg>
