<svg width="48" height="48" viewBox="0 0 48 48" fill="none" xmlns="http://www.w3.org/2000/svg">
<path d="M40.6037 8.99521V5.50303L26.4687 4.00638C25.8035 3.92323 25.3878 4.67156 25.7203 5.17044L28.9631 8.99521H40.6037ZM15.3269 27.2876H7.42795C6.92907 27.2876 6.59648 27.1213 6.51333 26.6224L4.01891 14.3998C3.93577 13.8177 4.10206 13.1526 5.01668 13.1526H12.6662C13.2483 13.1526 13.664 13.402 13.7471 13.9009L16.2416 26.373C16.3247 26.7887 16.0753 27.2876 15.3269 27.2876Z" stroke="#1A1C23" stroke-width="2" stroke-miterlimit="10" stroke-linecap="round" stroke-linejoin="round"/>
<path d="M26.7178 44.0001L43.0146 23.3796M23.9739 39.7596L38.6078 21.5503M40.6033 12.321C40.6033 15.5637 38.0258 18.1413 34.783 18.1413C31.5403 18.1413 28.9627 15.5637 28.9627 12.321H40.6033ZM40.6033 12.321H26.1357C25.72 12.321 25.4705 11.8221 25.8031 11.4895L28.9627 8.99512H40.6033V12.321ZM39.1898 21.4672H29.6279C28.2975 21.4672 26.3852 22.2155 25.3874 23.047L17.5716 30.0314L14.8277 27.2875H6.92871L15.2434 36.3506C15.8255 36.9326 16.6569 37.2652 17.4053 37.2652C18.1536 37.2652 18.8188 37.0157 19.4008 36.5168L23.8907 32.6089V43.917H43.8461V26.2066C43.9292 23.5459 41.8505 21.4672 39.1898 21.4672Z" stroke="#1A1C23" stroke-width="2" stroke-miterlimit="10" stroke-linecap="round" stroke-linejoin="round"/>
<path d="M40.6037 12.321C40.6037 15.5637 38.0262 18.1413 34.7834 18.1413C31.5407 18.1413 28.9631 15.5637 28.9631 12.321H40.6037ZM40.6037 12.321H26.1361C25.7204 12.321 25.4709 11.8221 25.8035 11.4895L28.9631 8.99512H40.6037V12.321Z" stroke="#1A1C23" stroke-width="2" stroke-miterlimit="10" stroke-linecap="round" stroke-linejoin="round"/>
<path d="M15.3269 27.2874H7.42795C6.92907 27.2874 6.59648 27.1211 6.51333 26.6222L4.01891 14.3996C3.93577 13.8175 4.10206 13.1523 5.01668 13.1523H12.6662C13.2483 13.1523 13.664 13.4018 13.7471 13.9007L16.2416 26.3728C16.3247 26.7885 16.0753 27.2874 15.3269 27.2874Z" stroke="#1A1C23" stroke-width="2" stroke-miterlimit="10" stroke-linecap="round" stroke-linejoin="round"/>
<path d="M5 13.2564L15.3103 9.01593C15.726 8.93278 16.1417 9.18223 16.2249 9.59796L19.0519 23.8161L16.2249 24.8142" stroke="#1A1C23" stroke-width="2" stroke-miterlimit="10" stroke-linecap="round" stroke-linejoin="round"/>
</svg>
