<svg width="32" height="42" viewBox="0 0 32 42" fill="none" xmlns="http://www.w3.org/2000/svg">
<path d="M6.58105 12.1631H25.1857H6.58105ZM6.58105 17.7445H25.1857H6.58105ZM16.8136 29.0933C16.7206 28.5352 16.2555 28.0701 15.6973 27.977C15.6973 27.884 15.6043 27.884 15.6043 27.791C15.7904 27.2329 15.6973 26.6747 15.2322 26.3026C14.7671 25.9305 14.1159 25.9305 13.6508 26.2096C13.5578 26.2096 13.5578 26.2096 13.4648 26.1166C13.2787 25.5584 12.8136 25.1863 12.1624 25.1863C11.6043 25.1863 11.0462 25.5584 10.8601 26.1166C10.7671 26.1166 10.7671 26.1166 10.6741 26.2096C10.209 25.9305 9.5578 25.9305 9.09268 26.3026C8.62757 26.6747 8.53454 27.2329 8.72059 27.791C8.72059 27.884 8.62757 27.884 8.62757 27.977C8.06943 28.0701 7.60431 28.5352 7.51129 29.0933C7.41826 29.6515 7.69733 30.2096 8.16245 30.4887C8.16245 30.5817 8.16245 30.6747 8.16245 30.7677C7.79036 31.2329 7.79036 31.791 8.06943 32.2561C8.3485 32.7212 8.90664 33.0003 9.46478 32.9073C9.5578 33.0003 9.65082 33.0003 9.65082 33.0933C9.65082 33.6515 10.0229 34.1166 10.488 34.3026C11.0462 34.4887 11.6043 34.3026 11.9764 33.9305C12.0694 33.9305 12.0694 33.9305 12.1624 33.9305C12.2555 33.9305 12.2555 33.9305 12.3485 33.9305C12.6276 34.2096 12.9997 34.3956 13.3718 34.3956C13.5578 34.3956 13.6508 34.3956 13.8369 34.3026C14.395 34.1166 14.6741 33.6515 14.6741 33.0933C14.7671 33.0003 14.8601 33.0003 14.8601 32.9073C15.4183 33.0003 15.9764 32.7212 16.2555 32.2561C16.5345 31.791 16.4415 31.1398 16.1624 30.7677C16.1624 30.6747 16.1624 30.5817 16.1624 30.4887C16.6276 30.2096 16.9066 29.6515 16.8136 29.0933Z" stroke="#1A1C23" stroke-width="2" stroke-miterlimit="10" stroke-linejoin="round"/>
<path d="M6.5814 38.2093H1V1H30.7674V38.2093H17.7442" stroke="#1A1C23" stroke-width="2" stroke-miterlimit="10" stroke-linejoin="round"/>
<path d="M15.8833 32.6279V41L12.1623 38.2093L8.44141 41V32.6279" stroke="#1A1C23" stroke-width="2" stroke-miterlimit="10" stroke-linejoin="round"/>
</svg>
