<svg width="48" height="48" viewBox="0 0 48 48" fill="none" xmlns="http://www.w3.org/2000/svg">
<path d="M24.1 7C14.695 7 7 14.695 7 24.1C7 33.505 14.695 41.2 24.1 41.2C33.505 41.2 41.2 33.505 41.2 24.1C41.2 14.695 33.505 7 24.1 7Z" stroke="#1A1C23" stroke-width="2" stroke-miterlimit="10" stroke-linecap="round" stroke-linejoin="round"/>
<path d="M13.9951 31.8711C17.7874 31.8711 16.9239 33.4256 25.7724 33.4256C32.4437 33.4256 32.3737 31.8104 32.3737 31.1078C32.3737 30.3352 31.9525 29.7732 31.9525 29.7732C31.9525 29.7732 33.4269 29.212 33.4269 27.9482C33.4269 26.7543 32.303 26.333 32.303 26.333C32.303 26.333 33.4269 25.771 33.4269 24.5771C33.4269 23.3133 32.1631 22.892 32.1631 22.892C32.1631 22.892 32.3038 21.9787 32.3038 21.4175C32.3038 20.7149 31.5825 20.2127 30.3186 20.2127C28.4928 20.2127 28.5907 20.2127 26.2589 20.2127C24.7044 20.2127 23.6558 19.636 24.2878 18.2315C25.0604 16.6163 25.9877 14.2542 25.0744 12.709C24.5124 11.7257 22.7565 10.9531 22.5459 12.709C22.1246 17.1332 18.8912 17.9058 17.3459 19.7316C16.0106 21.3468 15.3996 23.3211 13.9951 23.3211" stroke="#1A1C23" stroke-width="2" stroke-miterlimit="10" stroke-linejoin="round"/>
</svg>
