<svg width="48" height="48" viewBox="0 0 48 48" fill="none" xmlns="http://www.w3.org/2000/svg">
<path d="M24.1 7C14.695 7 7 14.695 7 24.1C7 33.505 14.695 41.2 24.1 41.2C33.505 41.2 41.2 33.505 41.2 24.1C41.2 14.695 33.505 7 24.1 7Z" stroke="#1A56FF" stroke-width="2" stroke-miterlimit="10" stroke-linecap="round" stroke-linejoin="round"/>
<path d="M13.9951 31.8713C17.7874 31.8713 16.9239 33.4258 25.7724 33.4258C32.4437 33.4258 32.3737 31.8107 32.3737 31.108C32.3737 30.3354 31.9525 29.7734 31.9525 29.7734C31.9525 29.7734 33.4269 29.2123 33.4269 27.9484C33.4269 26.7545 32.303 26.3332 32.303 26.3332C32.303 26.3332 33.4269 25.7713 33.4269 24.5774C33.4269 23.3135 32.1631 22.8923 32.1631 22.8923C32.1631 22.8923 32.3038 21.979 32.3038 21.4178C32.3038 20.7151 31.5825 20.213 30.3186 20.213C28.4928 20.213 28.5907 20.213 26.2589 20.213C24.7044 20.213 23.6558 19.6363 24.2878 18.2317C25.0604 16.6166 25.9877 14.2544 25.0744 12.7092C24.5124 11.726 22.7565 10.9533 22.5459 12.7092C22.1246 17.1334 18.8912 17.906 17.3459 19.7319C16.0106 21.347 15.3996 23.3213 13.9951 23.3213" stroke="#1A56FF" stroke-width="2" stroke-miterlimit="10" stroke-linejoin="round"/>
</svg>
