<svg width="48" height="48" viewBox="0 0 48 48" fill="none" xmlns="http://www.w3.org/2000/svg">
<path d="M20.9883 38.8329C21.9977 39.0165 23.0989 39.2 24.2 39.2C32.8259 39.2 39.8 32.2259 39.8 23.6C39.8 14.9741 32.8259 8 24.2 8C23.0989 8 21.9977 8.09176 20.9883 8.36706" stroke="#1A56FF" stroke-width="2" stroke-miterlimit="10" stroke-linecap="round" stroke-linejoin="round"/>
<path d="M27.4121 38.8329C28.4215 39.0165 29.5227 39.2 30.6239 39.2C39.2498 39.2 46.2239 32.2259 46.2239 23.6C46.2239 14.9741 39.2498 8 30.6239 8C29.5227 8 28.4215 8.09176 27.4121 8.36706" stroke="#1A56FF" stroke-width="2" stroke-miterlimit="10" stroke-linecap="round" stroke-linejoin="round"/>
<path d="M17.7768 8C9.15088 8 2.17676 14.9741 2.17676 23.6C2.17676 32.2259 9.15088 39.2 17.7768 39.2C26.4026 39.2 33.3768 32.2259 33.3768 23.6C33.3768 14.9741 26.4026 8 17.7768 8Z" stroke="#1A56FF" stroke-width="2" stroke-miterlimit="10" stroke-linecap="round" stroke-linejoin="round"/>
<path d="M15.7843 25.4966V26.9834H20.3137V28.4317H15.7843V31H13.7843V28.4317H12V26.9834H13.7843V25.4966H12V23.7972H13.7843V17H18C18.9412 17 19.7516 17.0644 20.4314 17.1931C21.1242 17.3218 21.7451 17.5407 22.2941 17.8497C22.8562 18.1586 23.281 18.5963 23.5686 19.1628C23.8562 19.7292 24 20.4244 24 21.2483C24 22.7931 23.4771 23.8874 22.4314 24.531C21.3856 25.1747 19.9085 25.4966 18 25.4966H15.7843ZM15.7843 23.7972H18.098C19.3268 23.7972 20.2745 23.617 20.9412 23.2566C21.6209 22.8961 21.9608 22.2267 21.9608 21.2483C21.9608 20.2699 21.6209 19.6005 20.9412 19.24C20.2745 18.8795 19.3268 18.6993 18.098 18.6993H15.7843V23.7972Z" fill="#1A56FF"/>
</svg>
