<svg width="48" height="48" viewBox="0 0 48 48" fill="none" xmlns="http://www.w3.org/2000/svg">
<path d="M17.4225 3C17.0222 3.07547 16.7334 3.42984 16.74 3.84V4.68H10.02C8.63859 4.68 7.5 5.81859 7.5 7.2V42.48C7.5 43.8614 8.63859 45 10.02 45H38.58C39.9614 45 41.1 43.8614 41.1 42.48V7.2C41.1 5.81859 39.9614 4.68 38.58 4.68H31.86V3.84C31.86 3.37734 31.4827 3 31.02 3H17.58C17.5538 3 17.5275 3 17.5013 3C17.475 3 17.4488 3 17.4225 3ZM18.42 4.68H30.18V9.72H18.42V4.68ZM10.02 6.36H16.74V8.04H10.86V41.64H37.74V8.04H31.86V6.36H38.58C39.0459 6.36 39.42 6.73406 39.42 7.2V42.48C39.42 42.9459 39.0459 43.32 38.58 43.32H10.02C9.55406 43.32 9.18 42.9459 9.18 42.48V7.2C9.18 6.73406 9.55406 6.36 10.02 6.36ZM12.54 9.72H16.74V10.56C16.74 11.0227 17.1173 11.4 17.58 11.4H31.02C31.4827 11.4 31.86 11.0227 31.86 10.56V9.72H36.06V39.96H12.54V9.72ZM30.7838 18.645L30.3113 19.3537L23.4863 29.9325L18.9713 25.89L18.3675 25.3387L17.2388 26.5725L17.8688 27.15L23.0663 31.8487L23.8013 32.505L24.3263 31.6912L31.7288 20.2462L32.175 19.5637L30.7838 18.645Z" fill="#1A56FF"/>
</svg>
