<svg width="48" height="48" viewBox="0 0 48 48" fill="none" xmlns="http://www.w3.org/2000/svg">
<path d="M10.2792 3C9.43556 3 8.72842 3.42746 8.21982 3.93607C8.16738 3.98794 8.12188 4.04637 8.08442 4.10991L6.3761 7.04014C6.142 7.33139 6 7.70496 6 8.135V40.6567C6 41.6486 6.71976 42.3683 7.71167 42.3683H20.5492V40.6567H7.71167V8.135H28.2517V24.3958H29.9633V8.135C29.9633 7.65824 29.7949 7.24617 29.512 6.94486C29.5093 6.94037 29.5065 6.93592 29.5037 6.93149L27.792 4.02132C27.7757 3.99359 27.7578 3.9668 27.7385 3.94108C27.2763 3.32488 26.5682 3 25.7694 3H10.2792ZM10.2792 4.71167H25.7694C25.9945 4.71167 26.3033 4.89502 26.3611 4.96574L27.2186 6.42333H8.71794L9.47682 5.12287C9.7855 4.8212 9.94406 4.71167 10.2792 4.71167ZM11.135 10.7025C10.6881 10.7025 10.2324 10.8662 9.90975 11.1889C9.58708 11.5116 9.42333 11.9672 9.42333 12.4142V15.8375C9.42333 16.1496 9.60469 16.4209 9.76266 16.6933C9.60469 16.9658 9.42333 17.237 9.42333 17.5492V20.9725C9.42333 21.4194 9.58708 21.8751 9.90975 22.1978C10.2324 22.5204 10.6881 22.6842 11.135 22.6842H24.8283C25.2753 22.6842 25.7309 22.5204 26.0536 22.1978C26.3763 21.8751 26.54 21.4194 26.54 20.9725V17.5492C26.54 17.237 26.3586 16.9658 26.2007 16.6933C26.3586 16.4209 26.54 16.1496 26.54 15.8375V12.4142C26.54 11.9672 26.3763 11.5116 26.0536 11.1889C25.7309 10.8662 25.2753 10.7025 24.8283 10.7025H11.135ZM11.135 12.4142H24.8283V15.8375H11.135V12.4142ZM11.135 17.5492H24.8283V20.9725H11.135V17.5492ZM22.2608 26.1075V26.9633V44.08H41.0892V26.1075H22.2608ZM17.9817 26.9633C17.5277 26.9633 17.0923 27.1437 16.7713 27.4647C16.4503 27.7857 16.27 28.221 16.27 28.675C16.27 29.129 16.4503 29.5643 16.7713 29.8853C17.0923 30.2063 17.5277 30.3867 17.9817 30.3867C18.4356 30.3867 18.871 30.2063 19.192 29.8853C19.513 29.5643 19.6933 29.129 19.6933 28.675C19.6933 28.221 19.513 27.7857 19.192 27.4647C18.871 27.1437 18.4356 26.9633 17.9817 26.9633ZM23.9725 27.8192H39.3775V42.3683H23.9725V27.8192ZM25.6842 29.5308V32.0983H28.2517V29.5308H25.6842ZM35.0983 29.5308V32.0983H37.6658V29.5308H35.0983ZM17.9817 33.81C17.5277 33.81 17.0923 33.9903 16.7713 34.3113C16.4503 34.6323 16.27 35.0677 16.27 35.5217C16.27 35.9756 16.4503 36.411 16.7713 36.732C17.0923 37.053 17.5277 37.2333 17.9817 37.2333C18.4356 37.2333 18.871 37.053 19.192 36.732C19.513 36.411 19.6933 35.9756 19.6933 35.5217C19.6933 35.0677 19.513 34.6323 19.192 34.3113C18.871 33.9903 18.4356 33.81 17.9817 33.81ZM25.6842 33.81V36.3775H28.2517V33.81H25.6842ZM35.0983 33.81V36.3775H37.6658V33.81H35.0983ZM25.6842 38.0892V40.6567H28.2517V38.0892H25.6842ZM35.0983 38.0892V40.6567H37.6658V38.0892H35.0983Z" fill="#1A56FF"/>
</svg>
