<svg width="48" height="48" viewBox="0 0 48 48" fill="none" xmlns="http://www.w3.org/2000/svg">
<path d="M0 6.00024V7.92024H26.97C27.3525 7.92024 27.84 8.40774 27.84 8.79024V34.8002H18.15C17.6925 32.0777 15.3262 30.0002 12.48 30.0002C9.63375 30.0002 7.2675 32.0777 6.81 34.8002H2.88C2.3475 34.8002 1.92 34.3727 1.92 33.8402V25.2002H0V33.8402C0 35.419 1.30125 36.7202 2.88 36.7202H6.81C7.2675 39.4427 9.63375 41.5202 12.48 41.5202C15.3262 41.5202 17.6925 39.4427 18.15 36.7202H32.73C33.1875 39.4427 35.5537 41.5202 38.4 41.5202C41.2462 41.5202 43.6125 39.4427 44.07 36.7202H45.12C45.9187 36.7202 46.62 36.3602 47.13 35.8502C47.64 35.3402 48 34.639 48 33.8402V24.6302C48 23.5502 47.5875 22.5602 47.22 21.8102C46.8525 21.0602 46.47 20.5202 46.47 20.5202V20.4902L42.54 15.2102H42.51V15.1802C41.6587 14.1152 40.2937 12.7202 38.4 12.7202H30.72C30.375 12.7202 30.06 12.784 29.76 12.9002V8.79024C29.76 7.25274 28.5075 6.00024 26.97 6.00024H0ZM0 9.84024V11.7602H17.28V9.84024H0ZM0 13.6802V15.6002H14.4V13.6802H0ZM30.72 14.6402H34.56V23.2802C34.56 24.079 34.92 24.7802 35.43 25.2902C35.94 25.8002 36.6412 26.1602 37.44 26.1602H46.08V33.8402C46.08 34.0015 45.96 34.2602 45.75 34.4702C45.54 34.6802 45.2812 34.8002 45.12 34.8002H44.07C43.6125 32.0777 41.2462 30.0002 38.4 30.0002C35.5537 30.0002 33.1875 32.0777 32.73 34.8002H29.76V15.6002C29.76 15.439 29.88 15.1802 30.09 14.9702C30.3 14.7602 30.5587 14.6402 30.72 14.6402ZM36.48 14.6402H38.4C39.1912 14.6402 40.2937 15.529 40.98 16.3802L44.91 21.6302L44.94 21.6602C44.9587 21.6865 45.2175 22.054 45.51 22.6502C45.7537 23.1452 45.8812 23.734 45.96 24.2402H37.44C37.2787 24.2402 37.02 24.1202 36.81 23.9102C36.6 23.7002 36.48 23.4415 36.48 23.2802V14.6402ZM0 17.5202V19.4402H11.52V17.5202H0ZM0 21.3602V23.2802H8.64V21.3602H0ZM12.48 31.9202C14.6137 31.9202 16.32 33.6265 16.32 35.7602C16.32 37.894 14.6137 39.6002 12.48 39.6002C10.3462 39.6002 8.64 37.894 8.64 35.7602C8.64 33.6265 10.3462 31.9202 12.48 31.9202ZM38.4 31.9202C40.5337 31.9202 42.24 33.6265 42.24 35.7602C42.24 37.894 40.5337 39.6002 38.4 39.6002C36.2662 39.6002 34.56 37.894 34.56 35.7602C34.56 33.6265 36.2662 31.9202 38.4 31.9202Z" fill="#1A56FF"/>
</svg>
