<svg width="30" height="26" viewBox="0 0 30 26" fill="none" xmlns="http://www.w3.org/2000/svg">
<path d="M27.3293 11.5767H27.8303C28.1643 11.5767 28.387 11.354 28.387 11.02V8.79333C28.387 8.45933 28.1643 8.23667 27.8303 8.23667H2.22366C1.88966 8.23667 1.66699 8.45933 1.66699 8.79333V11.02C1.66699 11.354 1.88966 11.5767 2.22366 11.5767H2.72466L5.84199 21.9307C6.00899 22.376 6.39866 22.71 6.89966 22.71H16.697M7.79033 8.23667L14.9713 1L22.2637 8.23667H7.79033Z" stroke="#1A56FF" stroke-width="1.5" stroke-miterlimit="10" stroke-linecap="round" stroke-linejoin="round"/>
<path d="M15.0098 13.2466L20.0198 24.3799L21.6898 21.0399L25.5503 24.3799L27.2737 22.3375L23.3598 19.0916L26.1431 17.1432L15.0098 13.2466Z" stroke="#1A56FF" stroke-width="1.5" stroke-miterlimit="10" stroke-linecap="round" stroke-linejoin="round"/>
<path d="M26.6711 15.5586L27.8613 11.7426C27.9531 11.4492 27.7889 11.137 27.4955 11.0451C27.2011 10.9544 26.8899 11.1175 26.7986 11.4108L25.6201 15.19L26.6711 15.5586ZM17.1866 22.1534H15.584V23.2667H17.6876L17.1866 22.1534Z" fill="#1A56FF"/>
</svg>
