<svg width="32" height="32" viewBox="0 0 32 32" fill="none" xmlns="http://www.w3.org/2000/svg">
<path d="M16.0545 3.33305C16.0229 3.3336 15.9915 3.33686 15.9605 3.34277C9.00387 3.39768 3.40083 8.99894 3.34302 15.9548C3.32967 16.0241 3.32967 16.0952 3.34302 16.1644C3.39736 23.1216 8.99881 28.7252 15.9551 28.783C16.0243 28.7963 16.0955 28.7963 16.1647 28.783C23.1218 28.7287 28.7255 23.1272 28.7833 16.1709C28.7971 16.0995 28.7967 16.0261 28.7822 15.9548C28.7627 13.6646 28.1328 11.5283 27.0903 9.70391C27.0551 9.63934 27.0073 9.58245 26.9498 9.53656C26.8924 9.49068 26.8263 9.45672 26.7555 9.43667C26.6847 9.41663 26.6107 9.4109 26.5377 9.41981C26.4647 9.42873 26.3942 9.45213 26.3303 9.48862C26.2664 9.52512 26.2105 9.57398 26.1657 9.63236C26.121 9.69073 26.0883 9.75745 26.0697 9.8286C26.051 9.89975 26.0467 9.97391 26.0571 10.0467C26.0674 10.1196 26.0922 10.1896 26.1299 10.2527C27.0142 11.8003 27.5696 13.5897 27.6608 15.5097H26.5728C26.4995 15.5087 26.4268 15.5222 26.3588 15.5496C26.2907 15.5769 26.2288 15.6175 26.1766 15.669C26.1244 15.7204 26.083 15.7817 26.0547 15.8494C26.0264 15.917 26.0118 15.9896 26.0118 16.0629C26.0118 16.1362 26.0264 16.2088 26.0547 16.2764C26.083 16.344 26.1244 16.4053 26.1766 16.4568C26.2288 16.5083 26.2907 16.5489 26.3588 16.5762C26.4268 16.6035 26.4995 16.6171 26.5728 16.616H27.6651C27.3878 22.6198 22.6201 27.3875 16.6163 27.6648V26.5726C16.6173 26.4986 16.6034 26.4251 16.5756 26.3566C16.5477 26.288 16.5063 26.2257 16.4539 26.1735C16.4015 26.1212 16.3392 26.0799 16.2706 26.0522C16.202 26.0244 16.1285 26.0107 16.0545 26.0119C15.908 26.0142 15.7684 26.0745 15.6663 26.1796C15.5642 26.2847 15.508 26.4261 15.51 26.5726V27.6648C9.50619 27.3875 4.73852 22.6198 4.46119 16.616H5.55343C5.62673 16.6171 5.6995 16.6035 5.76752 16.5762C5.83554 16.5489 5.89745 16.5083 5.94965 16.4568C6.00185 16.4053 6.0433 16.344 6.07159 16.2764C6.09988 16.2088 6.11445 16.1362 6.11445 16.0629C6.11445 15.9896 6.09988 15.917 6.07159 15.8494C6.0433 15.7817 6.00185 15.7204 5.94965 15.669C5.89745 15.6175 5.83554 15.5769 5.76752 15.5496C5.6995 15.5222 5.62673 15.5087 5.55343 15.5097H4.46011C4.73744 9.506 9.50619 4.73827 15.51 4.46094V5.55318C15.509 5.62648 15.5225 5.69925 15.5498 5.76727C15.5772 5.83529 15.6177 5.8972 15.6692 5.9494C15.7207 6.0016 15.782 6.04305 15.8496 6.07134C15.9173 6.09963 15.9898 6.1142 16.0631 6.1142C16.1364 6.1142 16.209 6.09963 16.2766 6.07134C16.3443 6.04305 16.4056 6.0016 16.4571 5.9494C16.5085 5.8972 16.5491 5.83529 16.5764 5.76727C16.6038 5.69925 16.6173 5.62648 16.6163 5.55318V4.47066C19.0652 4.58874 21.3324 5.47134 23.1827 6.87013C23.2406 6.91399 23.3067 6.94599 23.377 6.96433C23.4473 6.98266 23.5206 6.98696 23.5926 6.97698C23.6645 6.96701 23.7339 6.94295 23.7965 6.90618C23.8592 6.86941 23.9141 6.82065 23.9579 6.76269C24.0018 6.70473 24.0338 6.6387 24.0521 6.56837C24.0704 6.49804 24.0747 6.42479 24.0647 6.35281C24.0547 6.28082 24.0306 6.21151 23.9939 6.14882C23.9571 6.08614 23.9083 6.03132 23.8503 5.98748C21.7105 4.36978 19.0485 3.37068 16.1755 3.34493C16.1357 3.33654 16.0951 3.33255 16.0545 3.33305ZM28.2528 4.44149C28.1723 4.43931 28.0924 4.45471 28.0185 4.48662C27.9446 4.51853 27.8786 4.56617 27.825 4.62623L16.0459 17.476L11.4759 12.9061C11.425 12.853 11.3639 12.8106 11.2964 12.7814C11.2288 12.7522 11.1561 12.7368 11.0825 12.736C11.0089 12.7353 10.9359 12.7492 10.8678 12.7771C10.7997 12.8049 10.7378 12.846 10.6857 12.898C10.6337 12.9501 10.5926 13.012 10.5647 13.0801C10.5369 13.1482 10.523 13.2212 10.5237 13.2948C10.5245 13.3684 10.5399 13.4411 10.5691 13.5087C10.5983 13.5762 10.6407 13.6373 10.6938 13.6883L16.0804 19.0749L28.6396 5.37384C28.7127 5.29621 28.7619 5.19909 28.7811 5.09417C28.8003 4.98926 28.7888 4.88102 28.7479 4.7825C28.7071 4.68397 28.6386 4.59937 28.5507 4.53887C28.4629 4.47836 28.3594 4.44455 28.2528 4.44149Z" fill="#1A56FF" stroke="#1A56FF" stroke-width="0.5"/>
</svg>
