<svg width="32" height="32" viewBox="0 0 32 32" fill="none" xmlns="http://www.w3.org/2000/svg">
<path d="M11.615 2C11.3481 2.05031 11.1556 2.28656 11.16 2.56V3.12H6.68C5.75906 3.12 5 3.87906 5 4.8V28.32C5 29.2409 5.75906 30 6.68 30H25.72C26.6409 30 27.4 29.2409 27.4 28.32V4.8C27.4 3.87906 26.6409 3.12 25.72 3.12H21.24V2.56C21.24 2.25156 20.9884 2 20.68 2H11.72C11.7025 2 11.685 2 11.6675 2C11.65 2 11.6325 2 11.615 2ZM12.28 3.12H20.12V6.48H12.28V3.12ZM6.68 4.24H11.16V5.36H7.24V27.76H25.16V5.36H21.24V4.24H25.72C26.0306 4.24 26.28 4.48938 26.28 4.8V28.32C26.28 28.6306 26.0306 28.88 25.72 28.88H6.68C6.36938 28.88 6.12 28.6306 6.12 28.32V4.8C6.12 4.48938 6.36938 4.24 6.68 4.24ZM8.36 6.48H11.16V7.04C11.16 7.34844 11.4116 7.6 11.72 7.6H20.68C20.9884 7.6 21.24 7.34844 21.24 7.04V6.48H24.04V26.64H8.36V6.48ZM20.5225 12.43L20.2075 12.9025L15.6575 19.955L12.6475 17.26L12.245 16.8925L11.4925 17.715L11.9125 18.1L15.3775 21.2325L15.8675 21.67L16.2175 21.1275L21.1525 13.4975L21.45 13.0425L20.5225 12.43Z" fill="#1A56FF"/>
</svg>
