<svg width="32" height="32" viewBox="0 0 32 32" fill="none" xmlns="http://www.w3.org/2000/svg">
<path d="M8.33298 2.6666C6.67614 2.66661 5.33301 4.00976 5.33301 5.6666V26.4398C5.33301 28.0967 6.67615 29.4398 8.33301 29.4398H23.286C24.9428 29.4398 26.286 28.0967 26.286 26.4398V11.2392C26.286 10.4435 25.9699 9.68046 25.4073 9.11785L19.8348 3.54521C19.2721 2.98259 18.5091 2.66651 17.7134 2.66652L8.33298 2.6666ZM6.49706 6.83068C6.49706 5.17382 7.84021 3.83068 9.49706 3.83068H15.1376C16.7944 3.83068 18.1376 5.17382 18.1376 6.83068V7.815C18.1376 9.47185 19.4807 10.815 21.1376 10.815H22.1219C23.7788 10.815 25.1219 12.1581 25.1219 13.815V25.2758C25.1219 26.9326 23.7788 28.2758 22.1219 28.2758H9.49706C7.8402 28.2758 6.49706 26.9326 6.49706 25.2758V6.83068ZM19.3016 8.19128C19.3016 6.89086 20.8739 6.23961 21.7934 7.15915C22.713 8.07868 22.0617 9.65095 20.7613 9.65095C19.9552 9.65095 19.3016 8.99743 19.3016 8.19128ZM9.98922 7.32284C9.66778 7.32284 9.40719 7.58342 9.40719 7.90486C9.40719 8.22631 9.66778 8.48689 9.98922 8.48689H16.3915C16.713 8.48689 16.9735 8.22631 16.9735 7.90486C16.9735 7.58342 16.713 7.32284 16.3915 7.32284H9.98922ZM9.98922 9.65095C9.66778 9.65095 9.40719 9.91153 9.40719 10.233C9.40719 10.5544 9.66778 10.815 9.98922 10.815H16.3915C16.713 10.815 16.9735 10.5544 16.9735 10.233C16.9735 9.91153 16.713 9.65095 16.3915 9.65095H9.98922ZM9.98922 11.9791C9.66778 11.9791 9.40719 12.2396 9.40719 12.5611C9.40719 12.8825 9.66778 13.1431 9.98922 13.1431H22.2118C22.5332 13.1431 22.7938 12.8825 22.7938 12.5611C22.7938 12.2396 22.5332 11.9791 22.2118 11.9791H9.98922ZM9.98922 14.3072C9.66778 14.3072 9.40719 14.5677 9.40719 14.8892C9.40719 15.2106 9.66778 15.4712 9.98922 15.4712H22.2118C22.5332 15.4712 22.7938 15.2106 22.7938 14.8892C22.7938 14.5677 22.5332 14.3072 22.2118 14.3072H9.98922ZM9.98922 16.6353C9.66778 16.6353 9.40719 16.8958 9.40719 17.2173C9.40719 17.5387 9.66778 17.7993 9.98922 17.7993H22.2118C22.5332 17.7993 22.7938 17.5387 22.7938 17.2173C22.7938 16.8958 22.5332 16.6353 22.2118 16.6353H9.98922Z" fill="#1A56FF"/>
<path fill-rule="evenodd" clip-rule="evenodd" d="M12.9908 19.2915C12.3292 19.2915 11.7903 19.7144 11.4266 20.2555C11.0628 20.7966 10.8445 21.4923 10.8445 22.2562C10.8445 22.8973 11.0446 23.593 11.4266 24.1842C11.4537 24.2261 11.4928 24.2593 11.5324 24.2929C11.5658 24.3212 11.5996 24.3499 11.6266 24.3842C11.4379 24.5525 11.081 24.9117 11.081 24.9117C10.8946 25.0254 10.7854 25.2323 10.8013 25.4505C10.815 25.6688 10.9514 25.8598 11.1537 25.9462C11.3538 26.0326 11.5857 25.9984 11.7539 25.8575C11.7539 25.8575 12.2428 25.3823 12.5906 25.0754C12.6487 25.0983 12.7053 25.1248 12.7618 25.1514C12.9134 25.2225 13.0649 25.2937 13.2454 25.2937C14.7141 25.2937 15.6872 24.5025 16.2465 23.784C16.3925 23.5954 16.4788 23.4538 16.5749 23.2963C16.5865 23.2773 16.5982 23.258 16.6102 23.2384C16.6165 23.2575 16.6227 23.2765 16.6288 23.2954C16.6626 23.3997 16.6952 23.5001 16.7376 23.6021C16.7739 23.6885 16.8149 23.7749 16.8831 23.875C16.887 23.8807 16.8911 23.8869 16.8955 23.8934C16.9669 24.0004 17.1019 24.2024 17.4469 24.2024C17.8116 24.2024 18.0443 24.0383 18.2594 23.8866C18.2736 23.8766 18.2877 23.8666 18.3017 23.8568C18.4507 23.7525 18.59 23.6404 18.731 23.5268C18.8051 23.4671 18.8797 23.407 18.9565 23.3475C19.4021 22.9996 19.85 22.7291 20.1751 22.7291C20.3843 22.7314 20.5798 22.6222 20.6867 22.4404C20.7913 22.2585 20.7913 22.0357 20.6867 21.8538C20.5798 21.6719 20.3843 21.5628 20.1751 21.565C19.3567 21.565 18.736 22.0379 18.2472 22.4199C18.1585 22.4893 18.0772 22.555 18.0014 22.6162C17.8986 22.6993 17.8061 22.7741 17.7197 22.8382C17.7103 22.81 17.7015 22.7878 17.6923 22.7648C17.6838 22.7434 17.675 22.7212 17.6652 22.6927C17.6015 22.5063 17.5219 22.3176 17.4287 22.1289C17.4194 22.1102 17.4103 22.0909 17.401 22.0713C17.3629 21.9908 17.3218 21.9038 17.2468 21.8197C17.1536 21.7151 16.9763 21.565 16.7012 21.565C16.3636 21.565 16.2243 21.7487 16.132 21.8705C16.1211 21.8849 16.1108 21.8984 16.101 21.9106C16.0077 22.0266 15.9373 22.1312 15.8645 22.2562C15.8423 22.2934 15.8198 22.3317 15.7967 22.3707C15.6664 22.5918 15.5206 22.839 15.3371 23.0747C14.946 23.5771 14.3867 23.9909 13.5 24.075C14.098 23.2702 14.6277 22.2676 14.6277 21.0558C14.6277 20.6624 14.555 20.2328 14.2821 19.8735C14.0093 19.5143 13.525 19.2915 12.9908 19.2915ZM12.9908 20.4545C13.2454 20.4545 13.2932 20.5023 13.3546 20.5819C13.4159 20.6614 13.4637 20.8342 13.4637 21.0548C13.4637 21.9824 12.959 22.8531 12.4088 23.5466C12.1655 23.1691 12.0086 22.6394 12.0086 22.2552C12.0086 21.7209 12.17 21.2207 12.3906 20.8911C12.6111 20.5614 12.8635 20.4545 12.9908 20.4545Z" fill="#1A56FF"/>
</svg>
