<svg width="32" height="32" viewBox="0 0 32 32" fill="none" xmlns="http://www.w3.org/2000/svg">
<path d="M0 4.00049V5.28049H17.98C18.235 5.28049 18.56 5.60549 18.56 5.86049V23.2005H12.1C11.795 21.3855 10.2175 20.0005 8.32 20.0005C6.4225 20.0005 4.845 21.3855 4.54 23.2005H1.92C1.565 23.2005 1.28 22.9155 1.28 22.5605V16.8005H0V22.5605C0 23.613 0.8675 24.4805 1.92 24.4805H4.54C4.845 26.2955 6.4225 27.6805 8.32 27.6805C10.2175 27.6805 11.795 26.2955 12.1 24.4805H21.82C22.125 26.2955 23.7025 27.6805 25.6 27.6805C27.4975 27.6805 29.075 26.2955 29.38 24.4805H30.08C30.6125 24.4805 31.08 24.2405 31.42 23.9005C31.76 23.5605 32 23.093 32 22.5605V16.4205C32 15.7005 31.725 15.0405 31.48 14.5405C31.235 14.0405 30.98 13.6805 30.98 13.6805V13.6605L28.36 10.1405H28.34V10.1205C27.7725 9.41049 26.8625 8.48049 25.6 8.48049H20.48C20.25 8.48049 20.04 8.52299 19.84 8.60049V5.86049C19.84 4.83549 19.005 4.00049 17.98 4.00049H0ZM0 6.56049V7.84049H11.52V6.56049H0ZM0 9.12049V10.4005H9.6V9.12049H0ZM20.48 9.76049H23.04V15.5205C23.04 16.053 23.28 16.5205 23.62 16.8605C23.96 17.2005 24.4275 17.4405 24.96 17.4405H30.72V22.5605C30.72 22.668 30.64 22.8405 30.5 22.9805C30.36 23.1205 30.1875 23.2005 30.08 23.2005H29.38C29.075 21.3855 27.4975 20.0005 25.6 20.0005C23.7025 20.0005 22.125 21.3855 21.82 23.2005H19.84V10.4005C19.84 10.293 19.92 10.1205 20.06 9.98049C20.2 9.84049 20.3725 9.76049 20.48 9.76049ZM24.32 9.76049H25.6C26.1275 9.76049 26.8625 10.353 27.32 10.9205L29.94 14.4205L29.96 14.4405C29.9725 14.458 30.145 14.703 30.34 15.1005C30.5025 15.4305 30.5875 15.823 30.64 16.1605H24.96C24.8525 16.1605 24.68 16.0805 24.54 15.9405C24.4 15.8005 24.32 15.628 24.32 15.5205V9.76049ZM0 11.6805V12.9605H7.68V11.6805H0ZM0 14.2405V15.5205H5.76V14.2405H0ZM8.32 21.2805C9.7425 21.2805 10.88 22.418 10.88 23.8405C10.88 25.263 9.7425 26.4005 8.32 26.4005C6.8975 26.4005 5.76 25.263 5.76 23.8405C5.76 22.418 6.8975 21.2805 8.32 21.2805ZM25.6 21.2805C27.0225 21.2805 28.16 22.418 28.16 23.8405C28.16 25.263 27.0225 26.4005 25.6 26.4005C24.1775 26.4005 23.04 25.263 23.04 23.8405C23.04 22.418 24.1775 21.2805 25.6 21.2805Z" fill="#1A56FF"/>
</svg>
