<svg width="24" height="24" viewBox="0 0 24 24" fill="none" xmlns="http://www.w3.org/2000/svg">
<path fill-rule="evenodd" clip-rule="evenodd" d="M21.7071 3.29289C21.8946 3.48043 22 3.73478 22 4L22 14C22 14.5523 21.5523 15 21 15L13 15C12.4477 15 12 14.5523 12 14L12 13L6 13L6 21L7 21C7.55229 21 8 21.4477 8 22C8 22.5523 7.55229 23 7 23L3 23C2.44771 23 2 22.5523 2 22C2 21.4477 2.44771 21 3 21L4 21L4 2C4 1.44771 4.44771 1 5 1L13 1C13.5523 1 14 1.44771 14 2L14 3L21 3C21.2652 3 21.5196 3.10536 21.7071 3.29289ZM12 3L6 3L6 11L13 11C13.5523 11 14 11.4477 14 12L14 13L20 13L20 5L13 5C12.4477 5 12 4.55228 12 4L12 3Z" fill="white"/>
</svg>
