<svg width="13" height="11" viewBox="0 0 13 11" fill="none" xmlns="http://www.w3.org/2000/svg">
<path d="M0.63 5.41459C0.63 5.87321 1.00222 6.24543 1.46085 6.24543L10.2341 6.24544L7.62067 8.99679C7.46821 9.15756 7.39219 9.3632 7.39219 9.56883C7.39219 9.78859 7.47901 10.0079 7.65058 10.1716C7.98333 10.4878 8.50926 10.474 8.8254 10.1413L12.7719 5.98704C13.076 5.66675 13.076 5.16326 12.7719 4.84255L8.8254 0.688304C8.50926 0.355549 7.98334 0.342256 7.65058 0.657978C7.31866 0.974116 7.30495 1.50004 7.62067 1.8328L10.2341 4.58374L1.46085 4.58374C1.00222 4.58374 0.63 4.95596 0.63 5.41459Z" fill="white"/>
</svg>
