<svg width="13" height="11" viewBox="0 0 13 11" fill="none" xmlns="http://www.w3.org/2000/svg">
<path d="M12.37 5.44479C12.37 4.98616 11.9978 4.61394 11.5392 4.61394L2.7659 4.61394L5.37933 1.86258C5.53179 1.70181 5.60782 1.49618 5.60782 1.29054C5.60782 1.07078 5.52099 0.85144 5.34942 0.687763C5.01667 0.371625 4.49074 0.385335 4.1746 0.71809L0.228069 4.87233C-0.076022 5.19262 -0.076022 5.69612 0.228069 6.01683L4.1746 10.1711C4.49074 10.5038 5.01666 10.5171 5.34942 10.2014C5.68134 9.88526 5.69505 9.35933 5.37933 9.02658L2.7659 6.27564L11.5392 6.27564C11.9978 6.27564 12.37 5.90342 12.37 5.44479Z" fill="white"/>
</svg>
