<svg width="32" height="32" viewBox="0 0 32 32" fill="none" xmlns="http://www.w3.org/2000/svg">
<path d="M28.3303 14.5767H28.8313C29.1653 14.5767 29.388 14.354 29.388 14.02V11.7933C29.388 11.4593 29.1653 11.2367 28.8313 11.2367H3.22464C2.89064 11.2367 2.66797 11.4593 2.66797 11.7933V14.02C2.66797 14.354 2.89064 14.5767 3.22464 14.5767H3.72564L6.84297 24.9307C7.00997 25.376 7.39964 25.71 7.90064 25.71H17.698M8.7913 11.2367L15.9723 4L23.2646 11.2367H8.7913Z" stroke="#1A1C23" stroke-width="1.5" stroke-miterlimit="10" stroke-linecap="round" stroke-linejoin="round"/>
<path d="M16.0117 16.2461L21.0217 27.3794L22.6917 24.0394L26.5522 27.3794L28.2756 25.337L24.3617 22.0911L27.1451 20.1428L16.0117 16.2461Z" stroke="#1A1C23" stroke-width="1.5" stroke-miterlimit="10" stroke-linecap="round" stroke-linejoin="round"/>
<path d="M27.6731 18.5581L28.8632 14.7421C28.9551 14.4488 28.7908 14.1365 28.4975 14.0446C28.203 13.9539 27.8918 14.117 27.8005 14.4103L26.6221 18.1896L27.6731 18.5581ZM18.1886 25.1529H16.5859V26.2662H18.6896L18.1886 25.1529Z" fill="#1A1C23"/>
</svg>
