<svg width="19" height="19" viewBox="0 0 19 19" fill="none" xmlns="http://www.w3.org/2000/svg">
<path d="M0 18.3599L1.28443 13.798C0.458467 12.3948 0.0235906 10.7983 0.0235906 9.15823C0.0235906 4.10837 4.13196 0 9.18182 0C14.2317 0 18.34 4.10837 18.34 9.15823C18.34 14.2081 14.2317 18.3165 9.18182 18.3165C7.60832 18.3165 6.06755 17.9137 4.70452 17.1489L0 18.3599ZM4.94503 15.4828L5.22536 15.6539C6.41376 16.3794 7.78191 16.7629 9.18182 16.7629C13.3751 16.7629 16.7865 13.3515 16.7865 9.15823C16.7865 4.965 13.3751 1.55354 9.18182 1.55354C4.98859 1.55354 1.57713 4.965 1.57713 9.15823C1.57713 10.6193 1.99239 12.0382 2.7779 13.2614L2.96669 13.5553L2.22703 16.1824L4.94503 15.4828Z" fill="white"/>
<path d="M6.60939 4.89578L6.01514 4.86338C5.82848 4.8532 5.64539 4.91557 5.50431 5.03813C5.21621 5.2883 4.75556 5.77197 4.61407 6.40225C4.40308 7.34203 4.72915 8.4928 5.57307 9.64357C6.41699 10.7943 7.98969 12.6356 10.7707 13.4219C11.6669 13.6753 12.3718 13.5045 12.9157 13.1566C13.3465 12.881 13.6435 12.4387 13.7505 11.9387L13.8454 11.4956C13.8755 11.3547 13.804 11.2118 13.6732 11.1515L11.6648 10.2257C11.5344 10.1657 11.3798 10.2036 11.2921 10.3173L10.5037 11.3394C10.4441 11.4166 10.3422 11.4472 10.2501 11.4149C9.71015 11.2251 7.90148 10.4676 6.90906 8.55597C6.86602 8.47306 6.87672 8.37243 6.93777 8.30171L7.69129 7.43C7.76828 7.34099 7.78773 7.21584 7.74147 7.10767L6.87574 5.08226C6.82965 4.97443 6.72637 4.90216 6.60939 4.89578Z" fill="white"/>
</svg>
