<svg width="17" height="18" viewBox="0 0 17 18" fill="none" xmlns="http://www.w3.org/2000/svg">
<path d="M16.4829 4.18958L16.4778 4.16946C16.0711 2.52514 14.2374 0.7607 12.5534 0.39362L12.5344 0.389709C9.8106 -0.129903 7.04884 -0.129903 4.32563 0.389709L4.30607 0.39362C2.62264 0.7607 0.788916 2.52514 0.381607 4.16946L0.377137 4.18958C-0.125712 6.48592 -0.125712 8.81468 0.377137 11.111L0.381607 11.1311C0.77154 12.7053 2.46871 14.3887 4.08985 14.8516V16.6871C4.08985 17.3514 4.89943 17.6777 5.35982 17.1984L7.21953 15.2652C7.62287 15.2878 8.02643 15.3004 8.43 15.3004C9.8011 15.3004 11.1728 15.1708 12.5344 14.9109L12.5534 14.907C14.2374 14.54 16.0711 12.7755 16.4778 11.1312L16.4829 11.1111C16.9857 8.81468 16.9857 6.48592 16.4829 4.18958ZM15.0112 10.778C14.7397 11.8508 13.3473 13.1844 12.241 13.4308C10.7928 13.7062 9.33306 13.824 7.8748 13.7836C7.8458 13.7828 7.81792 13.794 7.79769 13.8148C7.59074 14.0272 6.43983 15.2087 6.43983 15.2087L4.99553 16.691C4.88994 16.8011 4.70444 16.7262 4.70444 16.5742V13.5335C4.70444 13.4833 4.66857 13.4406 4.61924 13.431C4.61896 13.4309 4.61868 13.4308 4.6184 13.4308C3.51213 13.1844 2.12035 11.8507 1.84825 10.778C1.39569 8.70232 1.39569 6.59817 1.84825 4.52252C2.12035 3.44977 3.51213 2.1161 4.6184 1.86971C7.14773 1.38865 9.71227 1.38865 12.241 1.86971C13.3479 2.1161 14.7397 3.44977 15.0112 4.52252C15.4643 6.59823 15.4643 8.70237 15.0112 10.778Z" fill="white"/>
<path d="M10.8365 12.1817C10.6664 12.1301 10.5043 12.0954 10.3538 12.0329C8.79408 11.3858 7.35861 10.551 6.22155 9.27123C5.57495 8.5435 5.06885 7.72189 4.64104 6.85241C4.43817 6.44007 4.2672 6.01159 4.09293 5.5859C3.93403 5.1977 4.16808 4.79665 4.41453 4.50415C4.64579 4.22965 4.94336 4.01957 5.26564 3.86475C5.51717 3.7439 5.7653 3.81357 5.94901 4.02678C6.34615 4.48773 6.71094 4.97225 7.00634 5.50656C7.18798 5.8352 7.13814 6.23692 6.80894 6.46058C6.72893 6.51494 6.65602 6.57875 6.58148 6.64015C6.51611 6.69396 6.4546 6.74832 6.40979 6.82118C6.32788 6.95449 6.32397 7.11171 6.37671 7.25665C6.78268 8.3723 7.46695 9.23983 8.58987 9.70709C8.76955 9.78185 8.95002 9.8689 9.15703 9.84476C9.50371 9.80425 9.61596 9.42399 9.85889 9.2253C10.0964 9.03115 10.3998 9.02858 10.6556 9.19044C10.9114 9.35236 11.1594 9.52618 11.4059 9.70184C11.6479 9.87426 11.8888 10.0429 12.1121 10.2395C12.3267 10.4285 12.4006 10.6765 12.2797 10.933C12.0585 11.4028 11.7365 11.7936 11.2721 12.0431C11.141 12.1134 10.9844 12.1362 10.8365 12.1817C10.9844 12.1362 10.6664 12.13 10.8365 12.1817Z" fill="white"/>
<path d="M8.4352 3.328C10.4754 3.38515 12.151 4.73911 12.5101 6.7561C12.5713 7.09977 12.5931 7.45115 12.6203 7.79996C12.6318 7.94668 12.5487 8.08608 12.3903 8.08798C12.2268 8.08993 12.1532 7.9531 12.1426 7.80644C12.1216 7.51613 12.107 7.22453 12.067 6.93662C11.8558 5.41684 10.6439 4.15949 9.1312 3.88968C8.90358 3.84906 8.67059 3.83839 8.44001 3.8142C8.29424 3.79889 8.10332 3.79006 8.07103 3.60887C8.04393 3.45695 8.17216 3.33599 8.31681 3.32822C8.35614 3.32604 8.3957 3.32783 8.4352 3.328C8.3957 3.32783 10.4754 3.38515 8.4352 3.328Z" fill="white"/>
<path d="M11.535 7.34669C11.5316 7.37217 11.5298 7.43206 11.5149 7.48849C11.4608 7.69332 11.1502 7.71897 11.0787 7.51224C11.0575 7.45089 11.0543 7.38111 11.0542 7.31507C11.0535 6.88295 10.9596 6.45128 10.7417 6.07531C10.5177 5.6889 10.1755 5.36406 9.77409 5.1675C9.53138 5.04866 9.26889 4.9748 9.00289 4.93077C8.88662 4.91155 8.76912 4.89987 8.65229 4.88361C8.51071 4.86395 8.43511 4.77371 8.44182 4.6342C8.44807 4.50346 8.54362 4.40943 8.68609 4.41747C9.1543 4.44407 9.60653 4.54525 10.0228 4.76567C10.8692 5.21393 11.3528 5.9215 11.4939 6.8663C11.5003 6.9091 11.5105 6.9515 11.5138 6.99447C11.5218 7.10057 11.5268 7.20678 11.535 7.34669C11.5268 7.20678 11.5316 7.37217 11.535 7.34669Z" fill="white"/>
<path d="M10.2666 7.29778C10.0959 7.30086 10.0046 7.20638 9.98699 7.04988C9.97475 6.94076 9.96508 6.83019 9.93905 6.72403C9.88776 6.51496 9.77662 6.32119 9.60074 6.19308C9.51771 6.13257 9.42362 6.08848 9.32506 6.06005C9.19985 6.0239 9.06983 6.03384 8.9449 6.00322C8.80924 5.96998 8.7342 5.86014 8.75555 5.73286C8.77494 5.61703 8.88763 5.52663 9.01418 5.5358C9.80518 5.5929 10.3705 6.00183 10.4512 6.93299C10.4569 6.9987 10.4636 7.06815 10.449 7.13101C10.424 7.23862 10.3443 7.29253 10.2666 7.29778C10.3443 7.29253 10.0959 7.30086 10.2666 7.29778Z" fill="white"/>
</svg>
