<svg width="24" height="24" viewBox="0 0 24 24" fill="none" xmlns="http://www.w3.org/2000/svg">
<path fill-rule="evenodd" clip-rule="evenodd" d="M9.00019 22.8002C9.99431 22.8002 10.8002 21.9943 10.8002 21.0002C10.8002 20.0061 9.99431 19.2002 9.00019 19.2002C8.00608 19.2002 7.2002 20.0061 7.2002 21.0002C7.2002 21.9943 8.00608 22.8002 9.00019 22.8002Z" fill="#A9A9A9"/>
<path fill-rule="evenodd" clip-rule="evenodd" d="M17.3996 22.8002C18.3937 22.8002 19.1996 21.9943 19.1996 21.0002C19.1996 20.0061 18.3937 19.2002 17.3996 19.2002C16.4055 19.2002 15.5996 20.0061 15.5996 21.0002C15.5996 21.9943 16.4055 22.8002 17.3996 22.8002Z" fill="#A9A9A9"/>
<path fill-rule="evenodd" clip-rule="evenodd" d="M4.13057 4.5002H1.2002V2.7002H4.8002C5.19765 2.7002 5.54804 2.9609 5.66224 3.34158L8.74913 13.6312C8.93948 14.2657 9.52345 14.7002 10.1859 14.7002H17.3899C18.0596 14.7002 18.6482 14.2562 18.8322 13.6123L20.407 8.1002H12.6002V6.3002H21.6002C21.8826 6.3002 22.1486 6.43276 22.3188 6.65822C22.4888 6.88368 22.5432 7.1759 22.4655 7.44744L20.5629 14.1068C20.1582 15.5235 18.8632 16.5002 17.3899 16.5002H10.1859C8.72856 16.5002 7.4438 15.5443 7.02504 14.1484L4.13057 4.5002Z" fill="#A9A9A9"/>
</svg>
