<svg width="26" height="23" viewBox="0 0 26 23" fill="none" xmlns="http://www.w3.org/2000/svg">
<path fill-rule="evenodd" clip-rule="evenodd" d="M4.08617 22.4628C5.73985 19.2204 9.11062 17 13 17C16.8894 17 20.2601 19.2204 21.9138 22.4628C24.4295 20.0922 26 16.7295 26 13C26 5.8203 20.1797 0 13 0C5.8203 0 0 5.8203 0 13C0 16.7295 1.57047 20.0922 4.08617 22.4628ZM18 10C18 12.7614 15.7614 15 13 15C10.2386 15 8 12.7614 8 10C8 7.23858 10.2386 5 13 5C15.7614 5 18 7.23858 18 10Z" fill="#1A56FF"/>
</svg>
