<svg width="113" height="32" viewBox="0 0 113 32" fill="none" xmlns="http://www.w3.org/2000/svg">
<path d="M15.7793 22.5703L19.496 26.3545C20.4741 25.9562 21.3869 25.4251 22.1694 24.6948L22.8867 24.0973C23.0823 23.9645 23.2127 23.7653 23.3431 23.6326L22.365 22.6367H15.7793V22.5703Z" fill="#1A56FF"/>
<path d="M26.8642 27.1562C26.6033 27.4218 26.4077 27.621 26.1469 27.8865C25.234 28.7496 24.1907 29.4799 23.1475 30.011L24.2559 31.1397L24.9732 31.8699H31.5589L27.777 28.0193L26.8642 27.1562Z" fill="#1A56FF"/>
<path d="M15.8448 27.1535C12.715 27.1535 10.172 26.0913 8.21585 23.9668C6.19449 21.7759 5.1512 19.1203 5.1512 15.9336C5.1512 12.7469 6.19449 10.0913 8.21585 7.90041C10.2372 5.77593 12.7802 4.71369 15.8448 4.71369C18.9095 4.71369 21.4525 5.77593 23.4738 7.90041C25.4952 10.0913 26.5385 12.7469 26.5385 15.9336C26.5385 16.9295 26.4081 17.8589 26.2125 18.722C25.756 20.5809 24.7779 22.3071 23.4086 23.6349L24.2563 24.4979L26.9297 27.2199C28.1686 25.9585 29.2119 24.5643 29.9291 22.971C30.842 21.112 31.4289 19.0539 31.4941 16.9958C31.4941 16.6639 31.4941 16.3319 31.4941 16C31.4941 11.4191 29.9944 7.63485 26.9297 4.58091C23.9303 1.52697 20.2136 0 15.7144 0C11.2805 0 7.49858 1.52697 4.49915 4.58091C1.49971 7.63485 0 11.4191 0 16C0 20.5145 1.49971 24.3651 4.49915 27.4191C7.49858 30.473 11.2153 32 15.7144 32C16.4317 32 17.1489 31.9336 17.801 31.8672C19.6267 31.6681 21.3873 31.0705 23.0174 30.1411L19.4311 26.4896C18.3226 26.888 17.1489 27.1535 15.8448 27.1535Z" fill="#1A56FF"/>
<path d="M56.9892 13.6698C56.9892 11.2133 56.1416 9.15524 54.5115 7.49549C52.8813 5.83574 50.86 5.03906 48.4474 5.03906C46.0348 5.03906 44.0134 5.83574 42.3833 7.49549C40.7532 9.15524 39.9707 11.2133 39.9707 13.6698C39.9707 16.1262 40.7532 18.1843 42.3833 19.844C44.0134 21.5038 46.0348 22.3005 48.4474 22.3005C50.2079 22.3005 51.7076 21.8357 53.0769 20.9727L53.9246 21.8357H57.4457L54.9679 19.3129C56.3372 17.7196 56.9892 15.8606 56.9892 13.6698ZM53.1421 17.3212L52.1641 16.3254H48.643L51.2512 18.981C50.4035 19.4457 49.4907 19.6449 48.5126 19.6449C46.8824 19.6449 45.5131 19.0474 44.4047 17.9187C43.2962 16.7237 42.7745 15.3295 42.7745 13.6034C42.7745 11.8772 43.2962 10.4167 44.4047 9.28803C45.5131 8.1594 46.8824 7.56188 48.5126 7.56188C50.1427 7.56188 51.512 8.1594 52.6205 9.28803C53.729 10.483 54.2506 11.8772 54.2506 13.6034C54.2506 15.064 53.8594 16.259 53.1421 17.3212Z" fill="#1A1C23"/>
<path d="M68.2041 16.6545C68.2041 17.584 67.878 18.3807 67.2912 18.9782C66.6391 19.5757 65.8567 19.9076 64.9438 19.9076C64.0961 19.9076 63.3137 19.5757 62.7268 18.9782C62.14 18.3143 61.8139 17.584 61.8139 16.6545V9.61719H59.4014V17.3848C59.4014 18.779 59.8578 19.9076 60.7707 20.8371C61.6835 21.7666 62.8572 22.2313 64.2265 22.2313C65.9219 22.2313 67.226 21.5674 68.2041 20.1732V21.9657H70.6166V9.61719H68.2041V16.6545Z" fill="#1A1C23"/>
<path d="M80.0061 9.28855C78.4412 9.28855 77.0719 9.81967 75.9634 10.9483V7.16406H73.5508V21.969H75.9634V20.6412C77.0719 21.7035 78.4412 22.301 80.0061 22.301C81.7014 22.301 83.1359 21.7035 84.2444 20.4421C85.3529 19.2471 85.9397 17.6537 85.9397 15.7948C85.9397 13.9358 85.3529 12.4089 84.2444 11.1475C83.0707 9.95244 81.7014 9.28855 80.0061 9.28855ZM82.3535 18.6495C81.6362 19.3798 80.7234 19.7782 79.6801 19.7782C78.6368 19.7782 77.7891 19.3798 77.0719 18.6495C76.3546 17.8529 76.0286 16.9234 76.0286 15.7948C76.0286 14.6661 76.4198 13.6703 77.0719 12.94C77.7891 12.1433 78.6368 11.8114 79.6801 11.8114C80.7234 11.8114 81.6362 12.2097 82.3535 12.94C83.0707 13.6703 83.3967 14.6661 83.3967 15.7948C83.462 16.9234 83.0707 17.9193 82.3535 18.6495Z" fill="#1A1C23"/>
<path d="M90.7007 9.61719H88.2881V21.9657H90.7007V9.61719Z" fill="#1A1C23"/>
<path d="M96.6993 7.16406H94.2867V9.6205H92.4609V11.745H94.2867V18.1184C94.2867 19.1807 94.6779 20.1101 95.3952 20.8404C96.1124 21.5707 97.0905 21.9027 98.1338 21.9027H99.8943V19.5126H98.3294C97.873 19.5126 97.4817 19.3134 97.1557 18.9815C96.8297 18.6495 96.6993 18.2512 96.6993 17.7201V11.6122H99.8943V9.48771H96.6993V7.16406Z" fill="#1A1C23"/>
<path d="M110.392 9.62108L106.806 18.5837L103.35 9.62108H100.872L105.632 21.6377L105.11 22.9655C104.85 23.6294 104.524 24.1605 104.067 24.4261C103.611 24.758 103.089 24.8908 102.372 24.8908H101.85V27.2808H102.372C103.611 27.2808 104.589 27.0153 105.371 26.4178C106.154 25.8866 106.806 24.9572 107.262 23.7622L113 9.55469H110.392V9.62108Z" fill="#1A1C23"/>
<path d="M90.7007 7.16406H88.2881V8.75743H90.7007V7.16406Z" fill="#1A1C23"/>
</svg>
