<svg width="14" height="14" viewBox="0 0 14 14" fill="none" xmlns="http://www.w3.org/2000/svg">
<path fill-rule="evenodd" clip-rule="evenodd" d="M13.0391 0.959885C12.6486 0.569361 12.0154 0.569361 11.6249 0.959885L0.958257 11.6266C0.567734 12.0171 0.567734 12.6502 0.958257 13.0408C1.34878 13.4313 1.98195 13.4313 2.37247 13.0408L13.0391 2.3741C13.4297 1.98357 13.4297 1.35041 13.0391 0.959885Z" fill="#A9A9A9"/>
<path fill-rule="evenodd" clip-rule="evenodd" d="M0.958909 0.959885C1.34943 0.569361 1.9826 0.569361 2.37312 0.959885L13.0398 11.6266C13.4303 12.0171 13.4303 12.6502 13.0398 13.0408C12.6493 13.4313 12.0161 13.4313 11.6256 13.0408L0.958909 2.3741C0.568385 1.98357 0.568385 1.35041 0.958909 0.959885Z" fill="#A9A9A9"/>
</svg>
